<?xml version="1.0" encoding="UTF-8"?>
<svg version="1.1" xmlns="http://www.w3.org/2000/svg" width="413" height="603">
<path d="M0 0 C0.87255053 0.00291284 1.74510105 0.00582568 2.6440925 0.00882679 C4.02357306 0.00754515 4.02357306 0.00754515 5.43092191 0.00623763 C8.53723064 0.00458 11.64348631 0.01010879 14.74979013 0.01555592 C16.9666582 0.01583776 19.18352636 0.01568013 21.40039438 0.01511341 C27.43940687 0.0148253 33.47839969 0.02072421 39.5174076 0.02768737 C45.82085519 0.03391867 52.12430319 0.03452453 58.42775339 0.03571278 C69.01443182 0.03847247 79.60110376 0.04472799 90.18777841 0.05364186 C101.09402804 0.06281528 112.00027571 0.06989645 122.90652841 0.07414967 C123.57833969 0.07441239 124.25015098 0.07467512 124.94232018 0.0749458 C128.31246556 0.0762508 131.68261096 0.07751452 135.05275637 0.0787577 C163.02916526 0.0892236 191.00556605 0.10682433 218.98196787 0.12908131 C220.60756804 3.20406194 221.22866381 5.2172036 221.20901865 8.71404225 C221.20879205 10.06498982 221.20879205 10.06498982 221.20856088 11.44322926 C221.19823831 12.40690418 221.18791574 13.37057911 221.17728037 14.36345631 C221.17445047 15.35661854 221.17162058 16.34978077 221.16870493 17.37303883 C221.1575193 20.54184275 221.13241749 23.71036296 221.10696787 26.87908131 C221.09693598 29.02881681 221.0878105 31.17855674 221.07962412 33.32830006 C221.05758528 38.59532377 221.02412371 43.86218227 220.98196787 49.12908131 C216.32280638 50.9548658 212.18010438 51.40706927 207.23245615 51.35613209 C206.48055506 51.35642414 205.72865396 51.3567162 204.95396799 51.3570171 C202.48661841 51.35563182 200.01957672 51.34010879 197.55228037 51.32439381 C195.83449843 51.32066082 194.11671436 51.3178152 192.39892954 51.31581837 C187.89112781 51.30820442 183.3834562 51.28857526 178.87570566 51.26641041 C174.2705193 51.24590366 169.66531179 51.23680634 165.06009287 51.22673756 C156.03399422 51.20532716 147.00799189 51.17121836 137.98196787 51.12908131 C137.98335056 52.80385579 137.98335056 52.80385579 137.98476118 54.51246411 C138.00693215 81.64341305 138.02338003 108.77436081 138.03378004 135.90531689 C138.03894271 149.02548121 138.04598485 162.14563957 138.05740732 175.26580006 C138.06735504 186.69745109 138.07382151 198.1290978 138.07605636 209.56075305 C138.07736332 215.61720945 138.08044822 221.67365349 138.08769792 227.73010594 C138.09445952 233.4246595 138.09658454 239.11919552 138.09507555 244.81375271 C138.09535181 246.90923809 138.09735611 249.00472403 138.10117334 251.10020596 C138.10611275 253.95029692 138.10496521 256.80032074 138.10222238 259.6504131 C138.10659165 260.90817824 138.10659165 260.90817824 138.11104918 262.19135278 C138.09608908 267.90083889 138.09608908 267.90083889 136.98196787 270.12908131 C118.00972164 275.8885132 97.04989948 273.91526178 78.98196787 266.12908131 C77.99196787 265.46908131 77.00196787 264.80908131 75.98196787 264.12908131 C75.68777588 261.26942502 75.5909572 258.62628049 75.62120432 255.7643047 C75.61864104 254.88871564 75.61607777 254.01312659 75.61343682 253.11100453 C75.60847208 250.15965226 75.62503601 247.20880488 75.64139169 244.25749928 C75.64223739 242.14885682 75.64176396 240.04021348 75.64006418 237.93157154 C75.63920054 232.19212686 75.65688587 226.45286882 75.67778605 220.71346766 C75.69649156 214.7210031 75.69829845 208.72853466 75.70186228 202.73604542 C75.71120079 191.38171147 75.73583899 180.02746378 75.76591074 168.67316788 C75.79939861 155.74955847 75.81592662 142.82594502 75.83099705 129.90230304 C75.86238699 103.31118123 75.91518252 76.7201361 75.98196787 50.12908131 C75.07940319 50.15867876 74.17683851 50.18827622 73.24692339 50.21877056 C69.83495031 50.32997912 66.42294067 50.43991035 63.01090044 50.54903179 C61.54601268 50.59613042 60.08114027 50.64370943 58.61628526 50.69181591 C46.63340075 51.08483459 34.66156531 51.28668369 22.67142099 51.2594524 C19.76186696 51.25389982 16.85245595 51.25956051 13.94290537 51.26580006 C12.05748836 51.26514196 10.17207145 51.26386641 8.28665537 51.26189381 C7.43368875 51.26391804 6.58072214 51.26594227 5.70190805 51.26802784 C1.34887231 51.25081565 -2.73151744 51.00057743 -7.01803213 50.12908131 C-7.04330051 43.16904684 -7.06086436 36.20902411 -7.07296377 29.24895436 C-7.07800555 26.87915819 -7.08483878 24.50936516 -7.09347159 22.13957936 C-7.10554403 18.74154092 -7.11126184 15.34354346 -7.11568838 11.94548756 C-7.12084967 10.87883366 -7.12601095 9.81217976 -7.13132864 8.71320301 C-7.13140417 7.7322617 -7.1314797 6.75132038 -7.13155752 5.74065357 C-7.13377814 4.87239445 -7.13599875 4.00413532 -7.13828665 3.10956532 C-6.87522121 -1.22288646 -3.57969263 0.00907069 0 0 Z " fill="#060606" transform="translate(102.01803213357925,123.8709186911583)"/>
<path d="M0 0 C0.17763436 7.8650533 0.30013657 15.72958867 0.38452148 23.59619141 C0.41575195 26.27227708 0.46743254 28.94574292 0.52807617 31.62158203 C0.61309137 35.46941272 0.65271541 39.31546334 0.68359375 43.1640625 C0.71972275 44.35802643 0.75585175 45.55199036 0.79307556 46.78213501 C0.79691689 54.92449907 0.79691689 54.92449907 -1.53051758 58.06555176 C-3.28416548 59.58268494 -5.01791411 60.80464659 -7 62 C-25.30747755 77.2674905 -34.95947159 94.62377866 -37.6875 118.4453125 C-39.62264651 140.4576041 -34.94097092 163.62825374 -20.7109375 180.96484375 C-20.14632812 181.63644531 -19.58171875 182.30804688 -19 183 C-18.36578125 183.82757813 -17.7315625 184.65515625 -17.078125 185.5078125 C-5.61308889 199.2572355 12.16299871 206.7465889 29.609375 208.53515625 C53.33284041 210.59061896 75.87181296 208.19915403 95 193 C97.73028577 190.60065796 100.40244948 188.14264332 102.99316406 185.59301758 C104.86968456 183.77323361 106.70460792 182.17172595 108.96875 180.85546875 C112.51692142 181.10793479 114.59770232 183.85666344 117 186.25 C118.16376592 187.36619472 119.32783507 188.48207335 120.4921875 189.59765625 C121.07838867 190.16758301 121.66458984 190.73750977 122.26855469 191.32470703 C124.84878877 193.82126178 127.4805434 196.25931705 130.125 198.6875 C131.09308594 199.57824219 132.06117188 200.46898437 133.05859375 201.38671875 C136.89222677 204.7926955 140.87048694 207.97502846 144.91796875 211.125 C147 213 147 213 148 216 C133.5579869 240.2200333 101.09366944 252.8268378 75.27490234 259.43359375 C37.81325017 268.76081344 -4.87402098 261.45704836 -37.91943359 241.86181641 C-67.57799168 223.13908879 -89.59190485 195.20727408 -97.51416016 160.76464844 C-105.27207184 124.09233679 -100.67698675 85.34616964 -80.05371094 53.63769531 C-63.28801679 28.93855619 -39.90731977 11.69302606 -11.875 1.5 C-10.7907373 1.0985376 -10.7907373 1.0985376 -9.68457031 0.68896484 C-6.00226521 -0.59384102 -3.71337368 -1.17339746 0 0 Z " fill="#040404" transform="translate(172,192)"/>
<path d="M0 0 C5.5255033 0.45894891 10.54842864 1.54981916 15.8125 3.25 C16.51117188 3.47397461 17.20984375 3.69794922 17.9296875 3.92871094 C33.62955062 9.08248737 48.49166501 17.20260177 61 28 C61.83660156 28.65355469 62.67320312 29.30710938 63.53515625 29.98046875 C65.83420179 31.86415582 67.78585532 33.77512815 69.75 36 C70.34296875 36.66 70.9359375 37.32 71.546875 38 C74.05189381 41.44776783 74.05189381 41.44776783 74 44 C72.24929708 46.15869282 70.58037354 47.93438234 68.5625 49.8125 C68.01279541 50.34222412 67.46309082 50.87194824 66.89672852 51.41772461 C63.23585548 54.92019706 59.49102477 58.32694035 55.62109375 61.59765625 C53.95339651 62.9927538 53.95339651 62.9927538 52.41015625 64.68359375 C51 66 51 66 49 66 C48.505 67.485 48.505 67.485 48 69 C45.63671875 71.296875 45.63671875 71.296875 42.6875 73.75 C41.72199219 74.56984375 40.75648438 75.3896875 39.76171875 76.234375 C37 78 37 78 34.828125 77.953125 C32.75019507 76.86975982 31.6025472 75.76472252 30.0625 74 C22.29954657 65.92255592 12.39249579 60.42347574 2.484375 55.41015625 C0 54 0 54 -1 52 C-1.09531215 50.37127545 -1.12794996 48.73868807 -1.12939453 47.10717773 C-1.13254669 46.08949814 -1.13569885 45.07181854 -1.13894653 44.02330017 C-1.1369223 42.92119705 -1.13489807 41.81909393 -1.1328125 40.68359375 C-1.13376923 39.55679703 -1.13472595 38.43000031 -1.13571167 37.26905823 C-1.13639303 34.88420557 -1.13454181 32.49935106 -1.13037109 30.11450195 C-1.12501729 26.44933948 -1.13032017 22.78429929 -1.13671875 19.11914062 C-1.13605806 16.80729139 -1.13477708 14.49544224 -1.1328125 12.18359375 C-1.13483673 11.0794664 -1.13686096 9.97533905 -1.13894653 8.8377533 C-1.13579437 7.82322586 -1.13264221 6.80869843 -1.12939453 5.76342773 C-1.12859894 4.86567123 -1.12780334 3.96791473 -1.12698364 3.04295349 C-1 1 -1 1 0 0 Z " fill="#070707" transform="translate(246,189)"/>
<path d="M0 0 C1.37079654 0.05432458 2.73876705 0.18229102 4.1015625 0.33984375 C4.97288818 0.43354248 5.84421387 0.52724121 6.74194336 0.6237793 C8.1690564 0.77907104 8.1690564 0.77907104 9.625 0.9375 C26.4152051 2.61113948 43.19842903 2.4863949 60 1 C61.13945516 3.27891033 61.12894214 4.56782104 61.1328125 7.09765625 C61.13474609 8.29938477 61.13474609 8.29938477 61.13671875 9.52539062 C61.13285156 10.36263672 61.12898438 11.19988281 61.125 12.0625 C61.13080078 13.32416992 61.13080078 13.32416992 61.13671875 14.61132812 C61.12662682 20.87337318 61.12662682 20.87337318 60 22 C58.13364212 22.0991056 56.26351806 22.12799261 54.39453125 22.12939453 C53.19658936 22.13254669 51.99864746 22.13569885 50.7644043 22.13894653 C49.46027588 22.1369223 48.15614746 22.13489807 46.8125 22.1328125 C45.47110985 22.1334856 44.12971981 22.13445568 42.78833008 22.13571167 C39.97378379 22.13718836 37.15926918 22.13503504 34.34472656 22.13037109 C30.72959369 22.12467381 27.11453505 22.12795297 23.49940491 22.13394356 C20.72855058 22.13754997 17.95771398 22.13641022 15.18685913 22.13381577 C13.20310417 22.13282033 11.21934853 22.13586741 9.2355957 22.13894653 C8.03765381 22.13579437 6.83971191 22.13264221 5.60546875 22.12939453 C4.54481201 22.12859894 3.48415527 22.12780334 2.39135742 22.12698364 C0 22 0 22 -1 21 C-1.09880797 19.52347336 -1.13079245 18.04232764 -1.1328125 16.5625 C-1.13410156 15.66789062 -1.13539063 14.77328125 -1.13671875 13.8515625 C-1.13091797 12.44003906 -1.13091797 12.44003906 -1.125 11 C-1.12886719 10.05898438 -1.13273438 9.11796875 -1.13671875 8.1484375 C-1.13542969 7.25382812 -1.13414062 6.35921875 -1.1328125 5.4375 C-1.13112061 4.19806641 -1.13112061 4.19806641 -1.12939453 2.93359375 C-1 1 -1 1 0 0 Z " fill="#060606" transform="translate(179,457)"/>
<path d="M0 0 C0.33 0 0.66 0 1 0 C1.6892742 30.77899882 2.06856154 61.5434473 2.06903839 92.32961273 C2.06953805 97.44348612 2.07645632 102.55733789 2.0848999 107.67120361 C2.08624947 108.52103907 2.08759903 109.37087453 2.0889895 110.24646258 C2.09448743 113.69358066 2.10006637 117.14069852 2.10606813 120.58781576 C2.12255928 130.27901987 2.12618982 139.96994387 2.09960938 149.66113281 C2.07812333 157.53505042 2.08109125 165.40852917 2.11301792 173.28241742 C2.12878672 177.40340659 2.13226836 181.52354768 2.10525894 185.64449692 C2.08035413 189.46895783 2.08761974 193.29197062 2.12013817 197.11636162 C2.12623831 198.51443065 2.12036017 199.91261079 2.10164452 201.31056786 C1.65941367 208.55337505 1.65941367 208.55337505 4.61642075 214.7322731 C6.72239272 216.04701031 6.72239272 216.04701031 10 217 C9.34 217.33 8.68 217.66 8 218 C5.36 216.68 2.72 215.36 0 214 C0 143.38 0 72.76 0 0 Z " fill="#656565" transform="translate(178,174)"/>
<path d="M0 0 C1.37079654 0.05432458 2.73876705 0.18229102 4.1015625 0.33984375 C4.97288818 0.43354248 5.84421387 0.52724121 6.74194336 0.6237793 C8.1690564 0.77907104 8.1690564 0.77907104 9.625 0.9375 C26.4152051 2.61113948 43.19842903 2.4863949 60 1 C61.13945516 3.27891033 61.12894214 4.56782104 61.1328125 7.09765625 C61.13474609 8.29938477 61.13474609 8.29938477 61.13671875 9.52539062 C61.13285156 10.36263672 61.12898438 11.19988281 61.125 12.0625 C61.13080078 13.32416992 61.13080078 13.32416992 61.13671875 14.61132812 C61.12662682 20.87337318 61.12662682 20.87337318 60 22 C58.13364212 22.0991056 56.26351806 22.12799261 54.39453125 22.12939453 C53.19658936 22.13254669 51.99864746 22.13569885 50.7644043 22.13894653 C49.46027588 22.1369223 48.15614746 22.13489807 46.8125 22.1328125 C45.47110985 22.1334856 44.12971981 22.13445568 42.78833008 22.13571167 C39.97378379 22.13718836 37.15926918 22.13503504 34.34472656 22.13037109 C30.72959369 22.12467381 27.11453505 22.12795297 23.49940491 22.13394356 C20.72855058 22.13754997 17.95771398 22.13641022 15.18685913 22.13381577 C13.20310417 22.13282033 11.21934853 22.13586741 9.2355957 22.13894653 C8.03765381 22.13579437 6.83971191 22.13264221 5.60546875 22.12939453 C4.54481201 22.12859894 3.48415527 22.12780334 2.39135742 22.12698364 C0 22 0 22 -1 21 C-1.09880797 19.52347336 -1.13079245 18.04232764 -1.1328125 16.5625 C-1.13410156 15.66789062 -1.13539063 14.77328125 -1.13671875 13.8515625 C-1.13091797 12.44003906 -1.13091797 12.44003906 -1.125 11 C-1.12886719 10.05898438 -1.13273438 9.11796875 -1.13671875 8.1484375 C-1.13542969 7.25382812 -1.13414062 6.35921875 -1.1328125 5.4375 C-1.13112061 4.19806641 -1.13112061 4.19806641 -1.12939453 2.93359375 C-1 1 -1 1 0 0 Z M0 2 C0 7.94 0 13.88 0 20 C19.47 20 38.94 20 59 20 C59 14.39 59 8.78 59 3 C56.2053125 3.01160156 53.410625 3.02320313 50.53125 3.03515625 C47.80403761 3.04297028 45.0768265 3.04903368 42.34960938 3.05493164 C40.46418697 3.05993919 38.5787684 3.06674715 36.69335938 3.07543945 C33.97264656 3.08766253 31.2519854 3.09326424 28.53125 3.09765625 C27.28075867 3.10539818 27.28075867 3.10539818 26.00500488 3.11329651 C20.90828442 3.11377757 16.04804248 2.70043299 11 2 C9.00082953 1.9387509 6.99995226 1.9125006 5 1.9375 C3.35 1.958125 1.7 1.97875 0 2 Z " fill="#858585" transform="translate(179,457)"/>
<path d="M0 0 C0.33 0 0.66 0 1 0 C0.8595017 2.7920301 0.71284617 5.58349796 0.5625 8.375 C0.50352539 9.56609375 0.50352539 9.56609375 0.44335938 10.78125 C0.11328125 16.7734375 0.11328125 16.7734375 -1 19 C-1.1116165 21.96881144 -1.16413266 24.91340044 -1.16796875 27.8828125 C-1.17129715 28.77104706 -1.17462555 29.65928162 -1.17805481 30.57443237 C-1.18312501 32.45912152 -1.18546311 34.34381967 -1.18530273 36.22851562 C-1.18747542 39.09260216 -1.20559167 41.95629487 -1.22460938 44.8203125 C-1.22754615 46.65364452 -1.22952904 48.48697837 -1.23046875 50.3203125 C-1.23765427 51.16957306 -1.24483978 52.01883362 -1.25224304 52.89382935 C-1.23191648 58.27035382 -0.44823507 62.82292284 1 68 C1.1953125 70.75 1.1953125 70.75 1.125 73 C1.10695313 73.763125 1.08890625 74.52625 1.0703125 75.3125 C1.04710938 75.869375 1.02390625 76.42625 1 77 C-1.36723943 73.44914086 -1.88088867 70.18317075 -2.5625 66.0625 C-2.69180908 65.29977783 -2.82111816 64.53705566 -2.9543457 63.7512207 C-5.39023245 48.9317408 -5.42748252 34.58397813 -3.625 19.6875 C-3.49867187 18.56021484 -3.37234375 17.43292969 -3.2421875 16.27148438 C-2.5819313 10.65600539 -1.78266643 5.37125147 0 0 Z " fill="#545454" transform="translate(76,281)"/>
<path d="M0 0 C5.51745357 0.48398716 10.6555011 1.5684378 16 3 C16 3.33 16 3.66 16 4 C11.38 4 6.76 4 2 4 C2 19.84 2 35.68 2 52 C5.3 53.65 8.6 55.3 12 57 C12.33 57.99 12.66 58.98 13 60 C9.8411726 58.81543972 6.78725295 57.46399962 3.75 56 C3.06421875 55.67 2.3784375 55.34 1.671875 55 C0 54 0 54 -1 52 C-1.09531215 50.37127545 -1.12794996 48.73868807 -1.12939453 47.10717773 C-1.13254669 46.08949814 -1.13569885 45.07181854 -1.13894653 44.02330017 C-1.1369223 42.92119705 -1.13489807 41.81909393 -1.1328125 40.68359375 C-1.13376923 39.55679703 -1.13472595 38.43000031 -1.13571167 37.26905823 C-1.13639303 34.88420557 -1.13454181 32.49935106 -1.13037109 30.11450195 C-1.12501729 26.44933948 -1.13032017 22.78429929 -1.13671875 19.11914062 C-1.13605806 16.80729139 -1.13477708 14.49544224 -1.1328125 12.18359375 C-1.13483673 11.0794664 -1.13686096 9.97533905 -1.13894653 8.8377533 C-1.13579437 7.82322586 -1.13264221 6.80869843 -1.12939453 5.76342773 C-1.12859894 4.86567123 -1.12780334 3.96791473 -1.12698364 3.04295349 C-1 1 -1 1 0 0 Z " fill="#6B6B6B" transform="translate(246,189)"/>
<path d="M0 0 C0.8971875 0.309375 0.8971875 0.309375 1.8125 0.625 C1.99013436 8.4900533 2.11263657 16.35458867 2.19702148 24.22119141 C2.22825195 26.89727708 2.27993254 29.57074292 2.34057617 32.24658203 C2.42559137 36.09441272 2.46521541 39.94046334 2.49609375 43.7890625 C2.53222275 44.98302643 2.56835175 46.17699036 2.60557556 47.40713501 C2.60942587 55.56854399 2.60942587 55.56854399 0.20755005 58.75262451 C-1.52419999 60.24919996 -3.2030481 61.49106767 -5.1875 62.625 C-5.8475 62.295 -6.5075 61.965 -7.1875 61.625 C-6.21409668 61.05821533 -5.24069336 60.49143066 -4.23779297 59.9074707 C-1.97980822 58.00784158 -1.2609718 56.95483558 -0.61236572 54.0430603 C-0.3956915 50.71924033 -0.35708242 47.4363463 -0.3828125 44.10546875 C-0.36225296 42.28490715 -0.36225296 42.28490715 -0.34127808 40.42756653 C-0.30392282 36.55550253 -0.30769725 32.6847189 -0.3125 28.8125 C-0.29437736 26.18552678 -0.27357606 23.55857057 -0.25 20.93164062 C-0.1980967 14.49596807 -0.17994724 8.06086259 -0.1875 1.625 C-1.8375 1.625 -3.4875 1.625 -5.1875 1.625 C-2.1875 -0.375 -2.1875 -0.375 0 0 Z " fill="#3C3C3C" transform="translate(170.1875,191.375)"/>
<path d="M0 0 C4.29 0 8.58 0 13 0 C13 0.66 13 1.32 13 2 C29.82472396 3.6587756 46.87768138 3.92653366 63.6171875 1.4453125 C68.09946116 0.85526724 72.48951252 0.80483468 77 1 C77 1.33 77 1.66 77 2 C50.97516568 7.48799557 25.84760735 6.80087221 0 1 C0 0.67 0 0.34 0 0 Z " fill="#7B7B7B" transform="translate(173,449)"/>
<path d="M0 0 C1.7015625 0.433125 1.7015625 0.433125 3.4375 0.875 C22.72380254 5.11374781 41.54002833 4.21270744 61 2 C53.73384588 6.84410275 46.37220176 6.34603341 37.9375 6.3125 C37.27602966 6.31233887 36.61455933 6.31217773 35.93304443 6.31201172 C24.10185653 6.29198734 12.63567698 5.15760898 1 3 C0.67 2.01 0.34 1.02 0 0 Z " fill="#6C6C6C" transform="translate(182,397)"/>
<path d="M0 0 C0.33 0 0.66 0 1 0 C0.9278125 0.95519531 0.855625 1.91039062 0.78125 2.89453125 C-0.13999258 15.72795216 0.03063897 28.17327635 1 41 C-1 39 -1 39 -1.1953125 36.1796875 C-1.17210937 35.08914063 -1.14890625 33.99859375 -1.125 32.875 C-1.10695312 31.77929688 -1.08890625 30.68359375 -1.0703125 29.5546875 C-1.04710937 28.71164062 -1.02390625 27.86859375 -1 27 C-1.66 27 -2.32 27 -3 27 C-3.38408795 17.51160514 -2.55403863 9.15197174 0 0 Z " fill="#575757" transform="translate(134,299)"/>
<path d="M0 0 C4.29 0 8.58 0 13 0 C13 0.66 13 1.32 13 2 C19.93 2.495 19.93 2.495 27 3 C27 3.33 27 3.66 27 4 C17.46251851 4.4277608 9.23161404 3.32520414 0 1 C0 0.67 0 0.34 0 0 Z " fill="#616161" transform="translate(173,449)"/>
<path d="M0 0 C5.09593044 2.47075415 8.74336862 6.43896519 12 11 C12.703125 13.25390625 12.703125 13.25390625 13 15 C11.35 16.32 9.7 17.64 8 19 C8.350625 18.4225 8.70125 17.845 9.0625 17.25 C10.12820513 15.09855769 10.12820513 15.09855769 10 13 C8.48471525 9.96943051 5.79236438 8.84296049 3 7 C0 2.8 0 2.8 0 0 Z " fill="#7E7E7E" transform="translate(307,218)"/>
<path d="M0 0 C1.46573934 0.90477737 2.92235756 1.82434141 4.375 2.75 C5.18710937 3.26046875 5.99921875 3.7709375 6.8359375 4.296875 C9 6 9 6 11 10 C8.69 12.64 6.38 15.28 4 18 C4 17.01 4 16.02 4 15 C4.474375 14.54625 4.94875 14.0925 5.4375 13.625 C7.44583349 11.53633317 7.61869524 9.8216552 8 7 C6.35 6.67 4.7 6.34 3 6 C3 5.01 3 4.02 3 3 C2.01 2.67 1.02 2.34 0 2 C0 1.34 0 0.68 0 0 Z " fill="#5B5B5B" transform="translate(309,398)"/>
<path d="M0 0 C0.33 0 0.66 0 1 0 C2.85939879 7.78069851 4.41467342 14.98298054 4 23 C-0.48355057 16.27467414 -0.30050602 7.84654605 0 0 Z " fill="#555555" transform="translate(73,335)"/>
<path d="M0 0 C0.33 1.65 0.66 3.3 1 5 C1.99 5.33 2.98 5.66 4 6 C5.39712274 7.95597184 6.73779907 9.95436401 8 12 C7.67 12.66 7.34 13.32 7 14 C-1.6309795 5.738041 -1.6309795 5.738041 -4 1 C-1 0 -1 0 0 0 Z " fill="#595959" transform="translate(104,402)"/>
<path d="M0 0 C4.09501116 1.43474844 7.2603761 3.43465486 10.75 6 C11.71421875 6.70125 12.6784375 7.4025 13.671875 8.125 C16 10 16 10 17 12 C12.08023645 11.57830598 10.3281855 9.48667052 7 6 C5.74739153 5.05858236 4.47591762 4.14178202 3.1875 3.25 C2.135625 2.5075 1.08375 1.765 0 1 C0 0.67 0 0.34 0 0 Z " fill="#898989" transform="translate(290,206)"/>
<path d="M0 0 C1.32 0.33 2.64 0.66 4 1 C0.37 4.63 -3.26 8.26 -7 12 C-7 8.44044831 -6.10658705 7.72100827 -4 5 C-4 4.34 -4 3.68 -4 3 C-2.68 3 -1.36 3 0 3 C0 2.01 0 1.02 0 0 Z " fill="#585858" transform="translate(158,255)"/>
<path d="M0 0 C0 0.99 0 1.98 0 3 C-0.99 3 -1.98 3 -3 3 C-3.66 4.32 -4.32 5.64 -5 7 C-6.98 7 -8.96 7 -11 7 C-8.21677024 3.90752249 -4.31039412 0 0 0 Z " fill="#515151" transform="translate(266,387)"/>
<path d="M0 0 C5.50808397 0.59015185 10.64878069 1.56663769 16 3 C16 3.33 16 3.66 16 4 C11.05 4 6.1 4 1 4 C0.67 2.68 0.34 1.36 0 0 Z " fill="#525252" transform="translate(246,189)"/>
<path d="M0 0 C0.66 0 1.32 0 2 0 C3.32 2.97 4.64 5.94 6 9 C6.66 8.67 7.32 8.34 8 8 C7.67 10.31 7.34 12.62 7 15 C3.69383716 11.19791273 0 5.16418515 0 0 Z " fill="#4A4A4A" transform="translate(80,368)"/>
<path d="M0 0 C0.66 0.33 1.32 0.66 2 1 C0.59627198 2.20276695 -0.82352097 3.38680519 -2.25 4.5625 C-3.43335938 5.55443359 -3.43335938 5.55443359 -4.640625 6.56640625 C-7 8 -7 8 -9.296875 7.71484375 C-9.85890625 7.47894531 -10.4209375 7.24304688 -11 7 C-9.21475351 5.80286983 -7.4215972 4.61752721 -5.625 3.4375 C-4.62726563 2.77621094 -3.62953125 2.11492187 -2.6015625 1.43359375 C-1.74304688 0.96050781 -0.88453125 0.48742187 0 0 Z " fill="#727272" transform="translate(137,204)"/>
<path d="M0 0 C1.65 0 3.3 0 5 0 C1.63263969 2.82858266 -1.87451958 4.4998253 -6 6 C-6.99 5.67 -7.98 5.34 -9 5 C-8.67 4.34 -8.34 3.68 -8 3 C-5.35139573 2.40644386 -2.70802678 2.25790731 0 2 C0 1.34 0 0.68 0 0 Z " fill="#575757" transform="translate(275,439)"/>
<path d="M0 0 C0.66 0.33 1.32 0.66 2 1 C-2.41404428 5.08915269 -6.4341272 8.63450406 -12 11 C-12 10.34 -12 9.68 -12 9 C-10.35 8.34 -8.7 7.68 -7 7 C-7 6.01 -7 5.02 -7 4 C-5.68 4 -4.36 4 -3 4 C-3 3.34 -3 2.68 -3 2 C-2.01 1.34 -1.02 0.68 0 0 Z " fill="#626262" transform="translate(306,420)"/>
<path d="M0 0 C0.33 0 0.66 0 1 0 C1.34548714 6.33393082 0.29342747 11.10261508 -2 17 C-3.44715727 13.12813552 -2.5441918 10.1767672 -1.5625 6.25 C-1.27503906 5.07953125 -0.98757812 3.9090625 -0.69140625 2.703125 C-0.46324219 1.81109375 -0.23507813 0.9190625 0 0 Z " fill="#858585" transform="translate(76,281)"/>
<path d="M0 0 C0.66 0.33 1.32 0.66 2 1 C-1.3 4.3 -4.6 7.6 -8 11 C-8.99 10.67 -9.98 10.34 -11 10 C-5.555 5.05 -5.555 5.05 0 0 Z " fill="#1D1D1D" transform="translate(121,216)"/>
<path d="M0 0 C1.32 0 2.64 0 4 0 C4 0.66 4 1.32 4 2 C5.32 2 6.64 2 8 2 C8 1.34 8 0.68 8 0 C8.99 0.33 9.98 0.66 11 1 C10.01 2.485 10.01 2.485 9 4 C9.66 4 10.32 4 11 4 C11 4.66 11 5.32 11 6 C6.49197399 4.74194623 3.5087188 3.09592835 0 0 Z " fill="#4B4B4B" transform="translate(133,432)"/>
<path d="M0 0 C1.81612488 0.95144598 3.62781081 1.91136933 5.4375 2.875 C6.44683594 3.40867187 7.45617187 3.94234375 8.49609375 4.4921875 C11 6 11 6 12 8 C3.17647059 6.23529412 3.17647059 6.23529412 0 2 C0 1.34 0 0.68 0 0 Z " fill="#616161" transform="translate(163,386)"/>
<path d="M0 0 C0.33 0.66 0.66 1.32 1 2 C0.22265625 3.7265625 0.22265625 3.7265625 -0.9375 5.625 C-1.618125 6.73875 -2.29875 7.8525 -3 9 C-3.99 9 -4.98 9 -6 9 C-4.68775452 5.06326356 -3.08089673 2.77280706 0 0 Z " fill="#6D6D6D" transform="translate(102,233)"/>
<path d="M0 0 C-5.89738492 2.29342747 -10.66606918 3.34548714 -17 3 C-17 2.67 -17 2.34 -17 2 C-14.91952703 1.4678559 -12.83547707 0.94968214 -10.75 0.4375 C-9.58984375 0.14746094 -8.4296875 -0.14257812 -7.234375 -0.44140625 C-4.27909017 -0.95179964 -2.75565899 -1.02996165 0 0 Z " fill="#575757" transform="translate(243,400)"/>
<path d="M0 0 C2.74277578 3.19990508 4.6302836 6.00499382 6 10 C4.35 9.67 2.7 9.34 1 9 C0.67 6.03 0.34 3.06 0 0 Z " fill="#505050" transform="translate(143,362)"/>
<path d="M0 0 C0.87324262 2.44507934 1.10151327 3.67700322 0.3125 6.1875 C-1 8 -1 8 -3.125 8.75 C-4.053125 8.87375 -4.053125 8.87375 -5 9 C-3.7508258 5.54074837 -2.32472205 2.85306797 0 0 Z " fill="#6D6D6D" transform="translate(95,242)"/>
<path d="M0 0 C1.79258558 0.08693141 3.58415144 0.19510504 5.375 0.3125 C6.87160156 0.39951172 6.87160156 0.39951172 8.3984375 0.48828125 C9.25695312 0.65714844 10.11546875 0.82601563 11 1 C11.66 1.99 12.32 2.98 13 4 C8.428721 3.45144652 4.32564205 2.58255197 0 1 C0 0.67 0 0.34 0 0 Z " fill="#5E5E5E" transform="translate(160,445)"/>
<path d="M0 0 C2.25 0.125 2.25 0.125 5 1 C7.3125 4.0625 7.3125 4.0625 9 7 C5.18315774 5.44499019 2.80804268 2.96404505 0 0 Z " fill="#4A4A4A" transform="translate(117,420)"/>
<path d="M0 0 C-1.32 0.33 -2.64 0.66 -4 1 C-4 1.66 -4 2.32 -4 3 C-8.455 3.495 -8.455 3.495 -13 4 C-10.56272708 2.37515139 -8.62713877 1.34310925 -5.9375 0.3125 C-5.24527344 0.04050781 -4.55304688 -0.23148438 -3.83984375 -0.51171875 C-2 -1 -2 -1 0 0 Z " fill="#636363" transform="translate(164,194)"/>
<path d="M0 0 C7.38461538 0.49230769 7.38461538 0.49230769 10.5 3.0625 C10.995 3.701875 11.49 4.34125 12 5 C10.37276701 4.54965877 8.74826336 4.08944646 7.125 3.625 C5.76761719 3.24214844 5.76761719 3.24214844 4.3828125 2.8515625 C2 2 2 2 0 0 Z " fill="#585858" transform="translate(148,440)"/>
<path d="M0 0 C7.38461538 -0.36923077 7.38461538 -0.36923077 10.5 1.5 C10.995 1.995 11.49 2.49 12 3 C10.56163249 2.88541307 9.12429034 2.75790884 7.6875 2.625 C6.88699219 2.55539062 6.08648437 2.48578125 5.26171875 2.4140625 C3 2 3 2 0 0 Z " fill="#626262" transform="translate(188,392)"/>
<path d="M0 0 C1.32 0 2.64 0 4 0 C2.50163895 3.11198065 0.80066242 6.0534615 -1 9 C-1.33 7.68 -1.66 6.36 -2 5 C-1.34 5 -0.68 5 0 5 C0 3.35 0 1.7 0 0 Z " fill="#4B4B4B" transform="translate(146,267)"/>
<path d="M0 0 C0.33 0.66 0.66 1.32 1 2 C-0.28062485 3.7074998 -1.61767557 5.37373596 -3 7 C-3.66 7 -4.32 7 -5 7 C-5 7.66 -5 8.32 -5 9 C-5.66 8.67 -6.32 8.34 -7 8 C-4.69 5.36 -2.38 2.72 0 0 Z " fill="#202020" transform="translate(109,227)"/>
<path d="M0 0 C0.6875 1.6875 0.6875 1.6875 1 4 C-0.3125 6.75 -0.3125 6.75 -2 9 C-2.66 9 -3.32 9 -4 9 C-2.94124926 5.59687262 -1.99097846 2.98646769 0 0 Z " fill="#7D7D7D" transform="translate(89,251)"/>
<path d="M0 0 C2.4375 1.1875 2.4375 1.1875 5 3 C5.8125 5.6875 5.8125 5.6875 6 8 C2.24623848 6.74874616 1.75926711 5.4347596 0 2 C0 1.34 0 0.68 0 0 Z " fill="#616161" transform="translate(307,218)"/>
<path d="M0 0 C3.77545388 1.09068668 6.47043472 1.9083091 9 5 C5.625 4.75 5.625 4.75 2 4 C0.5625 1.9375 0.5625 1.9375 0 0 Z " fill="#6A6A6A" transform="translate(281,201)"/>
</svg>
